<?xml version="1.0" encoding="utf-8"?>
<!-- Generator: Adobe Illustrator 18.0.0, SVG Export Plug-In . SVG Version: 6.00 Build 0)  -->
<!DOCTYPE svg PUBLIC "-//W3C//DTD SVG 1.1//EN" "http://www.w3.org/Graphics/SVG/1.1/DTD/svg11.dtd">
<svg version="1.1" id="Icon_Set" xmlns="http://www.w3.org/2000/svg" xmlns:xlink="http://www.w3.org/1999/xlink" x="0px" y="0px"
	 viewBox="0 0 256 256" style="enable-background:new 0 0 256 256;" xml:space="preserve">
<style type="text/css">
	.st0{fill:#4C4372;}
	.st1{fill:#F0C48A;}
	.st2{fill:#FD919E;}
	.st3{fill:#D3E6F8;}
	.st4{fill:#A4CFF2;}
	.st5{fill:#FFFFFF;}
	.st6{fill:#7BABF1;}
	.st7{fill:#E8677D;}
</style>
<g>
	<g>
		<g>
			<circle class="st1" cx="128" cy="128" r="103.5"/>
		</g>
	</g>
	<g>
		<path class="st3" d="M136.937,44.694c-32.706-0.817-59.611,24.821-60.849,57.039l0,0c-0.03,0.771-0.049,1.543-0.049,2.319
			c0,0.777,0.02,1.551,0.049,2.32v14.13l-14.335,22.584c-1.47,2.315,0.194,5.341,2.936,5.341h11.399v27.435
			c0,6.216,5.039,11.256,11.256,11.256h31.165v24.206h59.133v-56.982c0-5.143,1.778-10.098,4.909-14.177
			c7.643-9.958,12.2-22.407,12.243-35.921C194.895,72.115,169.057,45.498,136.937,44.694z"/>
	</g>
	<g>
		<path class="st4" d="M137.214,44.708v166.616h40.428v-56.982c0-5.143,1.778-10.098,4.909-14.178
			c7.643-9.957,12.2-22.406,12.243-35.92C194.894,72.208,169.204,45.657,137.214,44.708z"/>
	</g>
	<g>
		<g>
			<path class="st6" d="M142.897,45.145c23.529,7.99,40.487,30.408,40.405,56.448c-0.043,13.513-4.602,25.962-12.243,35.921
				c-3.131,4.079-4.91,9.033-4.91,14.176v59.635h11.492v-56.982c0-5.143,1.778-10.098,4.909-14.177
				c7.643-9.958,12.2-22.407,12.243-35.921C194.889,74.129,172.193,48.855,142.897,45.145z"/>
		</g>
	</g>
	<g>
		<path class="st0" d="M177.642,214.324h-59.133c-1.657,0-3-1.343-3-3v-21.206H87.344c-7.861,0-14.256-6.396-14.256-14.256v-24.435
			h-8.399c-2.363,0-4.538-1.286-5.677-3.357c-1.138-2.07-1.059-4.596,0.208-6.591l13.868-21.849v-13.2
			c-0.03-0.789-0.049-1.581-0.049-2.378c0-0.815,0.021-1.626,0.052-2.436c1.292-33.612,28.669-59.941,62.326-59.941
			c0.529,0,1.063,0.006,1.596,0.02c33.621,0.841,60.888,28.905,60.781,62.559c-0.044,13.78-4.492,26.83-12.863,37.737
			c-2.766,3.604-4.289,7.99-4.289,12.351v56.982C180.642,212.981,179.299,214.324,177.642,214.324z M121.509,208.324h53.133v-53.982
			c0-5.675,1.964-11.357,5.529-16.003c7.564-9.856,11.583-21.649,11.623-34.104c0.096-30.416-24.546-55.78-54.932-56.541
			c-0.481-0.012-0.966-0.018-1.445-0.018c-30.42,0-55.163,23.795-56.331,54.173c-0.028,0.732-0.047,1.467-0.047,2.204
			c0,0.738,0.019,1.474,0.047,2.204c0.001,0.039,0.002,0.077,0.002,0.116v14.13c0,0.569-0.162,1.127-0.467,1.607l-14.335,22.584
			c-0.037,0.06-0.151,0.238-0.015,0.486c0.136,0.247,0.349,0.247,0.418,0.247h11.399c1.657,0,3,1.343,3,3v27.435
			c0,4.553,3.704,8.256,8.256,8.256h31.165c1.657,0,3,1.343,3,3V208.324z"/>
	</g>
	<g>
		<path class="st0" d="M137.214,111.328c-1.657,0-3-1.343-3-3V44.694c0-1.657,1.343-3,3-3s3,1.343,3,3v63.634
			C140.214,109.985,138.871,111.328,137.214,111.328z"/>
	</g>
	<g>
		<path class="st0" d="M137.214,214.324c-1.657,0-3-1.343-3-3v-69.787c0-1.657,1.343-3,3-3s3,1.343,3,3v69.787
			C140.214,212.981,138.871,214.324,137.214,214.324z"/>
	</g>
	<g>
		<path class="st0" d="M157.229,214.324c-1.657,0-3-1.343-3-3v-27.916c0-1.657,1.343-3,3-3s3,1.343,3,3v27.916
			C160.229,212.981,158.886,214.324,157.229,214.324z"/>
	</g>
	<g>
		<g>
			<circle class="st2" cx="157.228" cy="176.431" r="8.336"/>
		</g>
		<g>
			<path class="st0" d="M157.229,187.768c-6.251,0-11.337-5.086-11.337-11.337s5.086-11.337,11.337-11.337
				s11.336,5.086,11.336,11.337S163.479,187.768,157.229,187.768z M157.229,171.094c-2.942,0-5.337,2.395-5.337,5.337
				s2.395,5.337,5.337,5.337s5.336-2.395,5.336-5.337S160.171,171.094,157.229,171.094z"/>
		</g>
	</g>
	<g>
		<g>
			<circle class="st2" cx="157.228" cy="73.435" r="8.336"/>
		</g>
		<g>
			<path class="st0" d="M157.229,84.771c-6.251,0-11.337-5.086-11.337-11.337s5.086-11.337,11.337-11.337
				s11.336,5.086,11.336,11.337S163.479,84.771,157.229,84.771z M157.229,68.098c-2.942,0-5.337,2.395-5.337,5.337
				s2.395,5.337,5.337,5.337s5.336-2.395,5.336-5.337S160.171,68.098,157.229,68.098z"/>
		</g>
	</g>
	<g>
		<g>
			<circle class="st2" cx="168.846" cy="101.89" r="8.336"/>
		</g>
		<g>
			<path class="st0" d="M168.846,113.227c-6.251,0-11.336-5.086-11.336-11.337s5.085-11.337,11.336-11.337
				s11.337,5.086,11.337,11.337S175.097,113.227,168.846,113.227z M168.846,96.553c-2.942,0-5.336,2.395-5.336,5.337
				s2.394,5.337,5.336,5.337s5.337-2.395,5.337-5.337S171.788,96.553,168.846,96.553z"/>
		</g>
	</g>
	<g>
		<path class="st0" d="M178.402,151.556h-9.557c-1.657,0-3-1.343-3-3v-38.329c0-1.657,1.343-3,3-3s3,1.343,3,3v35.329h6.557
			c1.657,0,3,1.343,3,3S180.06,151.556,178.402,151.556z"/>
	</g>
	<g>
		<path class="st0" d="M186.222,76.435h-20.657c-1.657,0-3-1.343-3-3s1.343-3,3-3h20.657c1.657,0,3,1.343,3,3
			S187.879,76.435,186.222,76.435z"/>
	</g>
	<g>
		<circle class="st6" cx="137.213" cy="124.933" r="16.604"/>
	</g>
	<g>
		<path class="st0" d="M137.214,144.537c-10.81,0-19.604-8.795-19.604-19.604s8.794-19.604,19.604-19.604
			c10.81,0,19.604,8.795,19.604,19.604S148.023,144.537,137.214,144.537z M137.214,111.328c-7.502,0-13.604,6.103-13.604,13.604
			s6.103,13.604,13.604,13.604c7.501,0,13.604-6.103,13.604-13.604S144.715,111.328,137.214,111.328z"/>
	</g>
</g>
</svg>
